<?xml version="1.0" encoding="UTF-8" standalone="no"?>
<!DOCTYPE svg PUBLIC "-//W3C//DTD SVG 1.1//EN"
 "http://www.w3.org/Graphics/SVG/1.1/DTD/svg11.dtd">
<!-- Generated by graphviz version 2.42.3 (20191010.1750)
 -->
<!-- Title: %3 Pages: 1 -->
<svg width="398pt" height="223pt"
 viewBox="0.00 0.00 398.29 223.42" xmlns="http://www.w3.org/2000/svg" xmlns:xlink="http://www.w3.org/1999/xlink">
<g id="graph0" class="graph" transform="scale(1 1) rotate(0) translate(4 219.42)">
<title>%3</title>
<polygon fill="white" stroke="transparent" points="-4,4 -4,-219.42 394.29,-219.42 394.29,4 -4,4"/>
<g id="clust1" class="cluster">
<title>cluster40</title>
<path fill="none" stroke="black" d="M144.14,-8C144.14,-8 246.14,-8 246.14,-8 252.14,-8 258.14,-14 258.14,-20 258.14,-20 258.14,-104.71 258.14,-104.71 258.14,-110.71 252.14,-116.71 246.14,-116.71 246.14,-116.71 144.14,-116.71 144.14,-116.71 138.14,-116.71 132.14,-110.71 132.14,-104.71 132.14,-104.71 132.14,-20 132.14,-20 132.14,-14 138.14,-8 144.14,-8"/>
<text text-anchor="middle" x="243.14" y="-14.8" font-family="Times,serif" font-size="14.00">40</text>
</g>
<!-- ρ -->
<g id="node1" class="node">
<title>ρ</title>
<ellipse fill="none" stroke="black" cx="59.14" cy="-180.07" rx="59.29" ry="35.21"/>
<text text-anchor="middle" x="59.14" y="-189.87" font-family="Times,serif" font-size="14.00">ρ</text>
<text text-anchor="middle" x="59.14" y="-175.87" font-family="Times,serif" font-size="14.00">~</text>
<text text-anchor="middle" x="59.14" y="-161.87" font-family="Times,serif" font-size="14.00">HalfCauchy</text>
</g>
<!-- recruits -->
<g id="node4" class="node">
<title>recruits</title>
<ellipse fill="lightgrey" stroke="black" cx="195.14" cy="-73.36" rx="55.11" ry="35.21"/>
<text text-anchor="middle" x="195.14" y="-83.16" font-family="Times,serif" font-size="14.00">recruits</text>
<text text-anchor="middle" x="195.14" y="-69.16" font-family="Times,serif" font-size="14.00">~</text>
<text text-anchor="middle" x="195.14" y="-55.16" font-family="Times,serif" font-size="14.00">MvNormal</text>
</g>
<!-- ρ&#45;&gt;recruits -->
<g id="edge1" class="edge">
<title>ρ&#45;&gt;recruits</title>
<path fill="none" stroke="black" d="M94.88,-151.55C112.35,-138.1 133.52,-121.8 151.9,-107.65"/>
<polygon fill="black" stroke="black" points="154.33,-110.19 160.12,-101.32 150.06,-104.65 154.33,-110.19"/>
</g>
<!-- σ -->
<g id="node2" class="node">
<title>σ</title>
<ellipse fill="none" stroke="black" cx="195.14" cy="-180.07" rx="59.29" ry="35.21"/>
<text text-anchor="middle" x="195.14" y="-189.87" font-family="Times,serif" font-size="14.00">σ</text>
<text text-anchor="middle" x="195.14" y="-175.87" font-family="Times,serif" font-size="14.00">~</text>
<text text-anchor="middle" x="195.14" y="-161.87" font-family="Times,serif" font-size="14.00">HalfNormal</text>
</g>
<!-- σ&#45;&gt;recruits -->
<g id="edge2" class="edge">
<title>σ&#45;&gt;recruits</title>
<path fill="none" stroke="black" d="M195.14,-144.49C195.14,-136.36 195.14,-127.58 195.14,-119.07"/>
<polygon fill="black" stroke="black" points="198.64,-118.9 195.14,-108.9 191.64,-118.9 198.64,-118.9"/>
</g>
<!-- η -->
<g id="node3" class="node">
<title>η</title>
<ellipse fill="none" stroke="black" cx="331.14" cy="-180.07" rx="59.29" ry="35.21"/>
<text text-anchor="middle" x="331.14" y="-189.87" font-family="Times,serif" font-size="14.00">η</text>
<text text-anchor="middle" x="331.14" y="-175.87" font-family="Times,serif" font-size="14.00">~</text>
<text text-anchor="middle" x="331.14" y="-161.87" font-family="Times,serif" font-size="14.00">HalfCauchy</text>
</g>
<!-- η&#45;&gt;recruits -->
<g id="edge3" class="edge">
<title>η&#45;&gt;recruits</title>
<path fill="none" stroke="black" d="M295.41,-151.55C277.94,-138.1 256.77,-121.8 238.39,-107.65"/>
<polygon fill="black" stroke="black" points="240.23,-104.65 230.17,-101.32 235.96,-110.19 240.23,-104.65"/>
</g>
</g>
</svg>
