<?xml version="1.0" encoding="UTF-8" standalone="no"?>
<!DOCTYPE svg PUBLIC "-//W3C//DTD SVG 1.1//EN"
 "http://www.w3.org/Graphics/SVG/1.1/DTD/svg11.dtd">
<!-- Generated by graphviz version 2.42.3 (20191010.1750)
 -->
<!-- Title: %3 Pages: 1 -->
<svg width="244pt" height="249pt"
 viewBox="0.00 0.00 244.14 249.42" xmlns="http://www.w3.org/2000/svg" xmlns:xlink="http://www.w3.org/1999/xlink">
<g id="graph0" class="graph" transform="scale(1 1) rotate(0) translate(4 245.42)">
<title>%3</title>
<polygon fill="white" stroke="transparent" points="-4,4 -4,-245.42 240.14,-245.42 240.14,4 -4,4"/>
<g id="clust1" class="cluster">
<title>cluster2</title>
<path fill="none" stroke="black" d="M20,-124.71C20,-124.71 96,-124.71 96,-124.71 102,-124.71 108,-130.71 108,-136.71 108,-136.71 108,-221.42 108,-221.42 108,-227.42 102,-233.42 96,-233.42 96,-233.42 20,-233.42 20,-233.42 14,-233.42 8,-227.42 8,-221.42 8,-221.42 8,-136.71 8,-136.71 8,-130.71 14,-124.71 20,-124.71"/>
<text text-anchor="middle" x="96.5" y="-131.51" font-family="Times,serif" font-size="14.00">2</text>
</g>
<g id="clust2" class="cluster">
<title>cluster40</title>
<path fill="none" stroke="black" d="M20,-8C20,-8 96,-8 96,-8 102,-8 108,-14 108,-20 108,-20 108,-104.71 108,-104.71 108,-110.71 102,-116.71 96,-116.71 96,-116.71 20,-116.71 20,-116.71 14,-116.71 8,-110.71 8,-104.71 8,-104.71 8,-20 8,-20 8,-14 14,-8 20,-8"/>
<text text-anchor="middle" x="93" y="-14.8" font-family="Times,serif" font-size="14.00">40</text>
</g>
<!-- β -->
<g id="node1" class="node">
<title>β</title>
<ellipse fill="none" stroke="black" cx="58" cy="-190.07" rx="41.61" ry="35.21"/>
<text text-anchor="middle" x="58" y="-199.87" font-family="Times,serif" font-size="14.00">β</text>
<text text-anchor="middle" x="58" y="-185.87" font-family="Times,serif" font-size="14.00">~</text>
<text text-anchor="middle" x="58" y="-171.87" font-family="Times,serif" font-size="14.00">Normal</text>
</g>
<!-- recruits -->
<g id="node3" class="node">
<title>recruits</title>
<ellipse fill="lightgrey" stroke="black" cx="58" cy="-73.36" rx="41.61" ry="35.21"/>
<text text-anchor="middle" x="58" y="-83.16" font-family="Times,serif" font-size="14.00">recruits</text>
<text text-anchor="middle" x="58" y="-69.16" font-family="Times,serif" font-size="14.00">~</text>
<text text-anchor="middle" x="58" y="-55.16" font-family="Times,serif" font-size="14.00">Normal</text>
</g>
<!-- β&#45;&gt;recruits -->
<g id="edge1" class="edge">
<title>β&#45;&gt;recruits</title>
<path fill="none" stroke="black" d="M58,-154.65C58,-143.42 58,-130.79 58,-118.92"/>
<polygon fill="black" stroke="black" points="61.5,-118.75 58,-108.75 54.5,-118.75 61.5,-118.75"/>
</g>
<!-- σ -->
<g id="node2" class="node">
<title>σ</title>
<ellipse fill="none" stroke="black" cx="177" cy="-190.07" rx="59.29" ry="35.21"/>
<text text-anchor="middle" x="177" y="-199.87" font-family="Times,serif" font-size="14.00">σ</text>
<text text-anchor="middle" x="177" y="-185.87" font-family="Times,serif" font-size="14.00">~</text>
<text text-anchor="middle" x="177" y="-171.87" font-family="Times,serif" font-size="14.00">HalfNormal</text>
</g>
<!-- σ&#45;&gt;recruits -->
<g id="edge2" class="edge">
<title>σ&#45;&gt;recruits</title>
<path fill="none" stroke="black" d="M147.41,-159.4C136.37,-148.43 123.68,-135.93 112,-124.71 105.89,-118.84 99.33,-112.64 92.97,-106.67"/>
<polygon fill="black" stroke="black" points="95.32,-104.08 85.62,-99.81 90.54,-109.2 95.32,-104.08"/>
</g>
</g>
</svg>
